<svg xmlns="http://www.w3.org/2000/svg" viewBox="0 0 64 64">
  <defs>
    <linearGradient id="ticket" x1="10" y1="8" x2="54" y2="56" gradientUnits="userSpaceOnUse">
      <stop offset="0" stop-color="#aa292a"/>
      <stop offset="1" stop-color="#5f1115"/>
    </linearGradient>
    <linearGradient id="gold" x1="18" y1="14" x2="46" y2="48" gradientUnits="userSpaceOnUse">
      <stop offset="0" stop-color="#fff0a6"/>
      <stop offset="0.45" stop-color="#d6a94d"/>
      <stop offset="1" stop-color="#9e6c22"/>
    </linearGradient>
    <filter id="shadow" x="-20%" y="-20%" width="140%" height="140%">
      <feDropShadow dx="0" dy="3" stdDeviation="3" flood-color="#2a1210" flood-opacity="0.45"/>
    </filter>
  </defs>

  <rect width="64" height="64" rx="15" fill="#2a1210"/>
  <path
    d="M11 22c0-4.4 3.6-8 8-8h26c4.4 0 8 3.6 8 8v2.4c-4.1.8-7.2 4.4-7.2 8.6s3.1 7.8 7.2 8.6V44c0 4.4-3.6 8-8 8H19c-4.4 0-8-3.6-8-8v-2.4c4.1-.8 7.2-4.4 7.2-8.6s-3.1-7.8-7.2-8.6V22z"
    fill="url(#ticket)"
    filter="url(#shadow)"
  />
  <path
    d="M19 18h26c2.2 0 4 1.8 4 4v.1c-4.4 1.9-7.2 6.1-7.2 10.9S44.6 42 49 43.9v.1c0 2.2-1.8 4-4 4H19c-2.2 0-4-1.8-4-4v-.1c4.4-1.9 7.2-6.1 7.2-10.9S19.4 24 15 22.1V22c0-2.2 1.8-4 4-4z"
    fill="none"
    stroke="#e3c476"
    stroke-width="2"
    stroke-linejoin="round"
  />
  <path
    d="M32 20.5l3.3 6.6 7.3 1.1-5.3 5.1 1.2 7.2-6.5-3.4-6.5 3.4 1.2-7.2-5.3-5.1 7.3-1.1L32 20.5z"
    fill="url(#gold)"
    stroke="#fff3bf"
    stroke-width="1.4"
    stroke-linejoin="round"
  />
  <path d="M21 33h-5M48 33h-5" stroke="#f8edcf" stroke-width="2" stroke-linecap="round"/>
</svg>
